<svg xmlns="http://www.w3.org/2000/svg" xmlns:xlink="http://www.w3.org/1999/xlink" viewBox="0 0 686.34 241.29"><defs><style>.cls-1{fill:#fff;}.cls-2{fill:url(#Gradiente_sem_nome_5);}.cls-3{fill:url(#Gradiente_sem_nome_5-2);}.cls-4{fill:url(#Gradiente_sem_nome_5-3);}</style><linearGradient id="Gradiente_sem_nome_5" x1="302.86" y1="124.69" x2="463.09" y2="124.69" gradientUnits="userSpaceOnUse"><stop offset="0" stop-color="#df4c24"/><stop offset="1" stop-color="#a71f76"/></linearGradient><linearGradient id="Gradiente_sem_nome_5-2" x1="468.51" y1="128.18" x2="611.93" y2="128.18" xlink:href="#Gradiente_sem_nome_5"/><linearGradient id="Gradiente_sem_nome_5-3" x1="627.32" y1="115.49" x2="686.34" y2="115.49" xlink:href="#Gradiente_sem_nome_5"/></defs><g id="Camada_2" data-name="Camada 2"><g id="Camada_1-2" data-name="Camada 1"><path class="cls-1" d="M70.68,210.4a33.7,33.7,0,0,1,33.71-33.62,34.28,34.28,0,0,1,4.75.35,63.33,63.33,0,0,0,25.33,5.26,64.93,64.93,0,0,0,7.69-.48c.05-.29.11-.57.16-.86a72.32,72.32,0,0,0,.9-11.38c0-.38,0-.76,0-1.14a71.61,71.61,0,0,0-55.82-68.7A70.47,70.47,0,0,0,75,98.15c-.29,0-.58,0-.88,0-.82,0-1.63-.06-2.46-.06A71.77,71.77,0,0,0,7.18,138.39,71.6,71.6,0,0,0,87.44,239.51,33.53,33.53,0,0,1,70.68,210.4ZM132.22,0C72.84,1.13,23.87,46.83,17.35,104.69A84.25,84.25,0,0,1,66.19,85.16a76,76,0,1,1,87,107.13,74.68,74.68,0,0,1-14.44,2.22c-1.43.08-2.87.13-4.32.13a75.68,75.68,0,0,1-23.54-3.72A20.61,20.61,0,0,0,83.78,210.4h0a20.51,20.51,0,0,0,14.07,19.52c2.77.9,5.6,1.69,8.46,2.4a118.17,118.17,0,0,0,18.76,3c4,.31,8,.45,12.15.36,64-1.46,115.52-54.58,115.11-118.61A117.86,117.86,0,0,0,132.22,0ZM155.83,178.7A63.78,63.78,0,1,0,80,85.39l.92.1a84.75,84.75,0,0,1,75.19,78.94c.11,1.74.18,3.48.18,5.24,0,2.75-.14,5.47-.4,8.15C155.89,178.11,155.87,178.41,155.83,178.7Z"/><path class="cls-1" d="M155.83,178.7A63.78,63.78,0,1,0,80,85.39l.92.1a84.75,84.75,0,0,1,75.19,78.94c.11,1.74.18,3.48.18,5.24,0,2.75-.14,5.47-.4,8.15C155.89,178.11,155.87,178.41,155.83,178.7ZM70.68,210.4a33.7,33.7,0,0,1,33.71-33.62,34.28,34.28,0,0,1,4.75.35,63.33,63.33,0,0,0,25.33,5.26,64.93,64.93,0,0,0,7.69-.48c.05-.29.11-.57.16-.86a72.32,72.32,0,0,0,.9-11.38c0-.38,0-.76,0-1.14a71.61,71.61,0,0,0-55.82-68.7A70.47,70.47,0,0,0,75,98.15c-.29,0-.58,0-.88,0-.82,0-1.63-.06-2.46-.06A71.77,71.77,0,0,0,7.18,138.39,71.6,71.6,0,0,0,87.44,239.51,33.53,33.53,0,0,1,70.68,210.4ZM132.22,0C72.84,1.13,23.87,46.83,17.35,104.69A84.25,84.25,0,0,1,66.19,85.16a76,76,0,1,1,87,107.13,74.68,74.68,0,0,1-14.44,2.22c-1.43.08-2.87.13-4.32.13a75.68,75.68,0,0,1-23.54-3.72A20.61,20.61,0,0,0,83.78,210.4h0a20.51,20.51,0,0,0,14.07,19.52c2.77.9,5.6,1.69,8.46,2.4a118.17,118.17,0,0,0,18.76,3c4,.31,8,.45,12.15.36,64-1.46,115.52-54.58,115.11-118.61A117.86,117.86,0,0,0,132.22,0Z"/><path class="cls-2" d="M302.86,20.45A88.79,88.79,0,0,1,313,18.39a90.73,90.73,0,0,1,14.28-1.11,75.11,75.11,0,0,1,12.53.95A21.48,21.48,0,0,1,349.18,22a17.28,17.28,0,0,1,5.71,7.77,36.26,36.26,0,0,1,1.91,12.86V73.76a77.56,77.56,0,0,1,15.07-4.44,90.55,90.55,0,0,1,15.71-1.27,77.94,77.94,0,0,1,28.87,5.39,71.66,71.66,0,0,1,24.11,15.71,72.93,72.93,0,0,1,16.5,25.54q6,15.24,6,35.22,0,20.64-6.19,36a68.69,68.69,0,0,1-17.29,25.54,73.3,73.3,0,0,1-27.13,15.39,113.45,113.45,0,0,1-35.38,5.23q-20.94,0-35.53-4.91A92.77,92.77,0,0,1,316.82,215q-14-9.83-14-25.38ZM377.1,189.58q14.59,0,22.69-10t8.09-29.67q0-20-8.25-29.82t-22.21-9.84a41.68,41.68,0,0,0-10.94,1.27,63.56,63.56,0,0,0-10,3.81V184.5a32.48,32.48,0,0,0,8.41,3.65A44.5,44.5,0,0,0,377.1,189.58Z"/><path class="cls-3" d="M533.87,29.34q18.09,0,32,4.6a75.11,75.11,0,0,1,23.8,12.53,52.9,52.9,0,0,1,14.91,18.72,53.84,53.84,0,0,1,5.08,23.17q0,33.31-37.76,63.46l-41.57,33.31h76.15a52.4,52.4,0,0,1,3.65,8.89,38.07,38.07,0,0,1,1.75,11.74q0,11.42-5.08,16.34T593.52,227H483.42a33.76,33.76,0,0,1-10.95-12.22,37,37,0,0,1-4-17.61q0-10.78,4.44-18.24a45.17,45.17,0,0,1,9.83-11.9l43.79-37.44q8.25-7,13.65-12.54a106.82,106.82,0,0,0,8.72-10,33.93,33.93,0,0,0,4.76-8.25,20.82,20.82,0,0,0,1.43-7.3q0-8.88-7.77-14t-19.2-5.08a61.24,61.24,0,0,0-22.69,4,91,91,0,0,0-16.66,8.41,31.68,31.68,0,0,1-8.88-9.52A25,25,0,0,1,476.44,62q0-16.5,15.55-24.59T533.87,29.34Z"/><path class="cls-4" d="M627.32,30a27.89,27.89,0,0,1,8.09-20.3q8.1-8.25,21.42-8.25t21.42,8.25A27.89,27.89,0,0,1,686.34,30a27.9,27.9,0,0,1-8.09,20.31q-8.1,8.25-21.42,8.25t-21.42-8.25A27.9,27.9,0,0,1,627.32,30ZM683.8,226.7q-3.49.63-10.31,1.75a87,87,0,0,1-13.8,1.11,74,74,0,0,1-12.54-1,21.35,21.35,0,0,1-9.36-3.8,18.39,18.39,0,0,1-5.87-7.78q-2.07-4.91-2.06-12.85V75q3.5-.63,10.31-1.74A85.86,85.86,0,0,1,654,72.17a74,74,0,0,1,12.53,1,21.35,21.35,0,0,1,9.36,3.8,18.39,18.39,0,0,1,5.87,7.78q2.06,4.92,2.06,12.85Z"/><path class="cls-1" d="M302.86,20.45A88.79,88.79,0,0,1,313,18.39a90.73,90.73,0,0,1,14.28-1.11,75.11,75.11,0,0,1,12.53.95A21.48,21.48,0,0,1,349.18,22a17.28,17.28,0,0,1,5.71,7.77,36.26,36.26,0,0,1,1.91,12.86V73.76a77.56,77.56,0,0,1,15.07-4.44,90.55,90.55,0,0,1,15.71-1.27,77.94,77.94,0,0,1,28.87,5.39,71.66,71.66,0,0,1,24.11,15.71,72.93,72.93,0,0,1,16.5,25.54q6,15.24,6,35.22,0,20.64-6.19,36a68.69,68.69,0,0,1-17.29,25.54,73.3,73.3,0,0,1-27.13,15.39,113.45,113.45,0,0,1-35.38,5.23q-20.94,0-35.53-4.91A92.77,92.77,0,0,1,316.82,215q-14-9.83-14-25.38ZM377.1,189.58q14.59,0,22.69-10t8.09-29.67q0-20-8.25-29.82t-22.21-9.84a41.68,41.68,0,0,0-10.94,1.27,63.56,63.56,0,0,0-10,3.81V184.5a32.48,32.48,0,0,0,8.41,3.65A44.5,44.5,0,0,0,377.1,189.58Z"/><path class="cls-1" d="M533.87,29.34q18.09,0,32,4.6a75.11,75.11,0,0,1,23.8,12.53,52.9,52.9,0,0,1,14.91,18.72,53.84,53.84,0,0,1,5.08,23.17q0,33.31-37.76,63.46l-41.57,33.31h76.15a52.4,52.4,0,0,1,3.65,8.89,38.07,38.07,0,0,1,1.75,11.74q0,11.42-5.08,16.34T593.52,227H483.42a33.76,33.76,0,0,1-10.95-12.22,37,37,0,0,1-4-17.61q0-10.78,4.44-18.24a45.17,45.17,0,0,1,9.83-11.9l43.79-37.44q8.25-7,13.65-12.54a106.82,106.82,0,0,0,8.72-10,33.93,33.93,0,0,0,4.76-8.25,20.82,20.82,0,0,0,1.43-7.3q0-8.88-7.77-14t-19.2-5.08a61.24,61.24,0,0,0-22.69,4,91,91,0,0,0-16.66,8.41,31.68,31.68,0,0,1-8.88-9.52A25,25,0,0,1,476.44,62q0-16.5,15.55-24.59T533.87,29.34Z"/><path class="cls-1" d="M627.32,30a27.89,27.89,0,0,1,8.09-20.3q8.1-8.25,21.42-8.25t21.42,8.25A27.89,27.89,0,0,1,686.34,30a27.9,27.9,0,0,1-8.09,20.31q-8.1,8.25-21.42,8.25t-21.42-8.25A27.9,27.9,0,0,1,627.32,30ZM683.8,226.7q-3.49.63-10.31,1.75a87,87,0,0,1-13.8,1.11,74,74,0,0,1-12.54-1,21.35,21.35,0,0,1-9.36-3.8,18.39,18.39,0,0,1-5.87-7.78q-2.07-4.91-2.06-12.85V75q3.5-.63,10.31-1.74A85.86,85.86,0,0,1,654,72.17a74,74,0,0,1,12.53,1,21.35,21.35,0,0,1,9.36,3.8,18.39,18.39,0,0,1,5.87,7.78q2.06,4.92,2.06,12.85Z"/></g></g></svg>